<svg fill="none" xmlns="http://www.w3.org/2000/svg" viewBox="0 0 130 128"><rect x=".5" width="128" height="128" rx="13" fill="url(#paint0_linear)"/><g filter="url(#filter0_d)" fill="#FAFAFA"><path d="M99.24 87.23c-.59 0-1.1.28-1.42.72 0 0-1.52 1.73-2.31 2.56a37.62 37.62 0 01-11.91 8.05 37.03 37.03 0 01-14.61 2.93 37.24 37.24 0 01-26.52-10.98 37.62 37.62 0 01-8.05-11.91 37.04 37.04 0 01-2.93-14.61c0-5.08 1-9.98 2.93-14.6a37.62 37.62 0 0119.92-19.96 37.04 37.04 0 0114.61-2.94c5.08 0 9.98 1 14.61 2.93a37.58 37.58 0 018.98 5.39 4.24 4.24 0 102.38-2.52A40.96 40.96 0 0028 63.99a40.97 40.97 0 0072.48 26.2c.31-.3.52-.75.52-1.2a1.82 1.82 0 00-1.76-1.76z"/><path d="M85.36 79.7h-7.52l-8.73-24.86-4.97 13.63h7.66l2.01 5.85H62.32l-1.94 5.37h-7.66l12.02-31.43h8.47l12.15 31.43z"/></g><defs><linearGradient id="paint0_linear" x1="68.5" y1="141" x2="69" y2="-51" gradientUnits="userSpaceOnUse"><stop stop-color="#2D3267"/><stop offset="1" stop-color="#686C95"/></linearGradient><filter id="filter0_d" x="27" y="23" width="75" height="84.98" filterUnits="userSpaceOnUse" color-interpolation-filters="sRGB"><feFlood flood-opacity="0" result="BackgroundImageFix"/><feColorMatrix in="SourceAlpha" values="0 0 0 0 0 0 0 0 0 0 0 0 0 0 0 0 0 0 127 0"/><feOffset dy="2"/><feGaussianBlur stdDeviation=".5"/><feColorMatrix values="0 0 0 0 0.0235294 0 0 0 0 0.0352941 0 0 0 0 0.168627 0 0 0 0.15 0"/><feBlend in2="BackgroundImageFix" result="effect1_dropShadow"/><feBlend in="SourceGraphic" in2="effect1_dropShadow" result="shape"/></filter></defs></svg>