<svg fill="none" xmlns="http://www.w3.org/2000/svg" viewBox="0 0 130 129"><rect x=".98" width="128.05" height="128.42" rx="13" fill="url(#paint0_linear)"/><g filter="url(#filter0_d)" fill="#FAFAFA"><path d="M46.22 80.2c-3.69 0-7-.78-9.93-2.34a17.25 17.25 0 01-6.86-6.52 18.6 18.6 0 01-2.46-9.53c0-3.54.82-6.7 2.46-9.47a17.36 17.36 0 016.8-6.51 20.86 20.86 0 019.99-2.35c3.5 0 6.57.71 9.19 2.15a13.85 13.85 0 016 6.17L55 55.56a9.86 9.86 0 00-3.86-3.69 10 10 0 00-5-1.27c-3.1 0-5.68 1.03-7.73 3.08-2.04 2.02-3.06 4.73-3.06 8.13 0 3.4 1 6.13 3 8.2a10.63 10.63 0 007.79 3.01c1.82 0 3.49-.4 5-1.2 1.55-.86 2.84-2.11 3.86-3.77l6.4 3.76a14.63 14.63 0 01-6.07 6.25 18.72 18.72 0 01-9.12 2.15zM105.77 43.88L89.12 82.62c-1.55 3.9-3.44 6.63-5.66 8.2a13.35 13.35 0 01-8.06 2.41c-1.77 0-3.53-.29-5.26-.87a11.6 11.6 0 01-4.26-2.42l3.33-6.17a9.16 9.16 0 006.13 2.48 5.5 5.5 0 003.6-1.14c.97-.76 1.86-2.04 2.66-3.83l.6-1.4-15.52-36h8.66L86.53 70.4l11.25-26.52h8z"/></g><defs><linearGradient id="paint0_linear" x1="75.5" y1="247.82" x2="76.01" y2="-51.67" gradientUnits="userSpaceOnUse"><stop stop-color="#1C2230"/><stop offset="1" stop-color="#565C6D"/></linearGradient><filter id="filter0_d" x="25.97" y="43.48" width="80.8" height="52.76" filterUnits="userSpaceOnUse" color-interpolation-filters="sRGB"><feFlood flood-opacity="0" result="BackgroundImageFix"/><feColorMatrix in="SourceAlpha" values="0 0 0 0 0 0 0 0 0 0 0 0 0 0 0 0 0 0 127 0"/><feOffset dy="2"/><feGaussianBlur stdDeviation=".5"/><feColorMatrix values="0 0 0 0 0.0235294 0 0 0 0 0.0352941 0 0 0 0 0.168627 0 0 0 0.15 0"/><feBlend in2="BackgroundImageFix" result="effect1_dropShadow"/><feBlend in="SourceGraphic" in2="effect1_dropShadow" result="shape"/></filter></defs></svg>