<svg fill="none" xmlns="http://www.w3.org/2000/svg" viewBox="0 0 129 128"><rect x=".48" width="128.05" height="127.38" rx="13" fill="url(#paint0_linear)"/><path d="M103.85 46.82a7.75 7.75 0 01-8.47 7.7 7.75 7.75 0 01-5.82-11.9 7.77 7.77 0 0114.3 4.2zM103.85 80.56a7.77 7.77 0 01-15.54 0 7.76 7.76 0 017.77-7.73c4.3 0 7.77 3.46 7.77 7.73zM72.77 100.23a7.75 7.75 0 01-7.77 7.73 7.75 7.75 0 01-6.51-11.95 7.77 7.77 0 0114.28 4.22zM43.1 81.96a7.77 7.77 0 01-15.54 0 7.75 7.75 0 0110.98-7.04 7.73 7.73 0 014.56 7.04zM41.69 46.82a7.75 7.75 0 01-7.77 7.73 7.75 7.75 0 01-7.77-7.73 7.77 7.77 0 0115.54 0zM72.77 27.15a7.67 7.67 0 01-4.91 7.19 7.79 7.79 0 01-10.63-7.2A7.75 7.75 0 0165 19.43c4.3 0 7.77 3.46 7.77 7.73z" fill="#fff"/><path d="M33.92 54.55c.24 0 .47 0 .7-.03v-8.4l5.82-3.5a7.77 7.77 0 00-14.3 4.2 7.75 7.75 0 007.78 7.73z" fill="#fff"/><path fill-rule="evenodd" clip-rule="evenodd" d="M95.38 46.12l-5.82-3.5a7.75 7.75 0 005.82 11.9v-8.4zM65 27.85l6.32 3.8a7.79 7.79 0 01-12.64 0l6.32-3.8zm23.31 52.7a7.76 7.76 0 017.06-7.7v7.7l-1.1.72.4.7H93.2l-3.84 2.48a7.65 7.65 0 01-1.06-3.9zm-45.2 1.41a7.73 7.73 0 00-8.49-7.7v6.3l.58.37-.58 1.03h2.17l5.46 3.53c.54-1.06.85-2.26.85-3.53zm15.38 14.05l6.51 4.22 6.51-4.22a7.77 7.77 0 00-13.02 0zM34.62 46.12v8.4a7.75 7.75 0 005.82-11.9l-5.82 3.5z" fill="#fff"/><path d="M43.1 81.96h45.34m-45.34 0a7.73 7.73 0 00-4.56-7.04m4.56 7.04c0 1.27-.3 2.47-.85 3.53m-7.63-30.97a7.75 7.75 0 01-8.48-7.7 7.77 7.77 0 0114.3-4.2m-5.82 11.9v-8.4l5.82-3.5m-5.82 11.9a7.75 7.75 0 005.82-11.9m-5.82 11.9v19.74m5.82-31.64l18.24-10.97m35.6 49.62l1.1-.71v-7.7m-1.1 8.4l.39.7H93.2m1.07-.7l-1.07.7m1.07-.7l-3.55-6.3m2.48 7h-4.77m4.77 0l-3.84 2.49m-52.58-2.49h-2.17l.58-1.03m1.6 1.03l-1.6-1.03m1.6 1.03h51.64m-51.65 0l5.46 3.53m-7.05-4.56l-.58-.37v-6.3m.58 6.67l3.34-6m0 0l21.52-38.65 1.53-2.18M38.54 74.92a7.78 7.78 0 00-3.92-.66M61.6 34.1a7.77 7.77 0 006.27.24m-6.27-.24L65 29.26l2.86 5.08m-6.27-.24a7.8 7.8 0 01-2.9-2.45m9.17 2.69l22.87 40.62M67.86 34.34c1.4-.55 2.6-1.5 3.46-2.69m19.4 43.3a7.69 7.69 0 00-2.28 7.01m2.29-7a7.76 7.76 0 014.65-2.1m-6.94 9.1c.16.9.48 1.73.93 2.49m-30.69-52.8l6.32-3.8 6.32 3.8m-12.64 0A7.75 7.75 0 0165 19.42a7.75 7.75 0 016.32 12.23m-36.7 42.61a7.75 7.75 0 00-7.06 7.7 7.77 7.77 0 0014.68 3.53m47.32-42.87l5.82 3.5v8.4m-5.82-11.9a7.75 7.75 0 005.82 11.9m-5.82-11.9L71.32 31.65m18.24 10.97a7.77 7.77 0 0114.3 4.2 7.75 7.75 0 01-8.48 7.7m0 0v18.34m0 0a7.75 7.75 0 018.48 7.7 7.77 7.77 0 01-14.49 3.9m0-.01L71.5 96M42.25 85.5l16.24 10.52m0 0l6.51 4.22 6.51-4.22m-13.02 0a7.77 7.77 0 0113.02 0m-13.02 0A7.75 7.75 0 0065 107.96a7.75 7.75 0 006.51-11.95" stroke="#FAFAFA" stroke-width="4"/><defs><linearGradient id="paint0_linear" x1="61.5" y1="141.81" x2="61.5" y2="0" gradientUnits="userSpaceOnUse"><stop stop-color="#E535AB"/><stop offset="1" stop-color="#FF92DB"/></linearGradient></defs></svg>