<svg fill="none" xmlns="http://www.w3.org/2000/svg" viewBox="0 0 123 123"><rect x=".37" width="122.22" height="122.4" rx="13" fill="url(#paint0_linear)"/><g filter="url(#filter0_d)"><path d="M91.08 60.69a8.9 8.9 0 00-6.72-8.64l8.63-25.27H50.23l8.65 25.35a9 9 0 00-6.48 8.57c0 3 1.5 5.65 3.79 7.28a23.8 23.8 0 01-3.13 3.57 23.52 23.52 0 01-7.37 4.72c-2.4-1.61-3.45-4.46-2.5-7.02a8.87 8.87 0 003.21-15.27 9.02 9.02 0 00-12.2.45A8.83 8.83 0 0034.17 67l-.42.86c-1.34 2.75-2.87 5.86-3.45 9.35-1.16 6.98.74 12.58 5.34 15.75a14.78 14.78 0 008.5 2.67c5.28 0 10.64-2.63 15.82-5.19 3.7-1.8 7.5-3.7 11.25-4.62 1.4-.34 2.84-.54 4.36-.76 3.09-.44 6.28-.9 9.15-2.55a12.91 12.91 0 006.3-8.87c.5-2.85 0-5.72-1.28-8.23a8.86 8.86 0 001.34-4.73zm-3.91 0a5.04 5.04 0 11-8.19-3.95l.02-.02.52-.36s.02 0 .02-.02l.24-.14.06-.02.28-.12.29-.12.06-.02.24-.08.08-.02.28-.06h.02l.3-.06c.02 0 .06 0 .08-.02l.24-.02h.1l.32-.02h.26c.08 0 .15 0 .22.02h.04a5.1 5.1 0 014.51 5.02zM55.83 30.76h31.56L80.14 52c-.3.06-.6.16-.9.26L71.62 36.8l-7.65 15.35c-.3-.1-.62-.16-.94-.22l-7.2-21.17zm14.34 28.19a8.83 8.83 0 00-2.7-4.79l4.15-8.33 4.19 8.52a9 9 0 00-2.5 4.6h-3.14zM60.12 55.8l.28-.06h.06l.24-.04h.08l.22-.02h.78l.2.02c.05 0 .06 0 .1.02l.23.04.08.02.28.06h.02c.08.02.16.04.24.08l.08.02c.06.02.14.04.2.08l.06.02.24.1h.02c.1.03.18.08.26.14h.02l.24.14.04.02.22.14.02.02c.24.18.47.38.68.57l.02.02a5 5 0 011.4 3.47 5.01 5.01 0 01-5.07 4.86 5.08 5.08 0 01-5.05-4.86 4.98 4.98 0 013.8-4.86zm-19.75-.14a5.05 5.05 0 015.06 5.02 5.05 5.05 0 01-10.11 0 5.05 5.05 0 015.05-5.02zm46.68 17.28a8.78 8.78 0 01-4.36 6.12c-2.18 1.26-4.87 1.66-7.7 2.06-1.6.2-3.18.48-4.74.83-4.17 1.02-8.18 3.01-12.08 4.93-4.98 2.45-9.67 4.76-14.02 4.76-2.24.01-4.41-.68-6.22-1.97-4.42-3.03-4.2-8.71-3.68-11.82.48-2.91 1.83-5.64 3.11-8.26l.22-.46c.44.17.9.29 1.39.37-.76 4.22 1.4 8.59 5.62 10.74l.76.4.82-.3a27.41 27.41 0 009.63-5.94 26.83 26.83 0 004.18-4.92 9.04 9.04 0 0010.07-6.58h3.37a8.91 8.91 0 008.7 6.67c1.66 0 3.2-.46 4.53-1.23.52 1.5.68 3.05.4 4.6z" fill="#fff"/></g><defs><linearGradient id="paint0_linear" x1="63.39" y1="122.4" x2="61.47" y2="1.43" gradientUnits="userSpaceOnUse"><stop stop-color="#BA246A"/><stop offset="1" stop-color="#DA82AB"/></linearGradient><filter id="filter0_d" x="28.97" y="26.78" width="65.02" height="71.85" filterUnits="userSpaceOnUse" color-interpolation-filters="sRGB"><feFlood flood-opacity="0" result="BackgroundImageFix"/><feColorMatrix in="SourceAlpha" values="0 0 0 0 0 0 0 0 0 0 0 0 0 0 0 0 0 0 127 0"/><feOffset dy="2"/><feGaussianBlur stdDeviation=".5"/><feColorMatrix values="0 0 0 0 0.0235294 0 0 0 0 0.0352941 0 0 0 0 0.168627 0 0 0 0.15 0"/><feBlend in2="BackgroundImageFix" result="effect1_dropShadow"/><feBlend in="SourceGraphic" in2="effect1_dropShadow" result="shape"/></filter></defs></svg>