<svg fill="none" xmlns="http://www.w3.org/2000/svg" viewBox="0 0 131 129"><rect x=".521" y=".164" width="130.367" height="128.456" rx="13" fill="url(#paint0_linear)"/><g filter="url(#filter0_d)"><g filter="url(#filter1_d)" stroke="#fff" stroke-width="3"><path d="M81.164 73.462c11.814-20.256 14.558-40.468 6.13-45.144-8.428-4.677-24.837 7.953-36.65 28.21-11.814 20.255-14.558 40.467-6.13 45.143 8.428 4.676 24.837-7.954 36.65-28.21z"/><path d="M50.377 73.462c-11.813-20.256-14.557-40.468-6.13-45.144 8.429-4.677 24.838 7.953 36.65 28.21 11.814 20.255 14.558 40.467 6.13 45.143-8.427 4.676-24.836-7.954-36.65-28.21z"/><path d="M65.769 81.971c-23.892 0-43.26-7.667-43.26-17.124 0-9.458 19.368-17.125 43.26-17.125s43.26 7.667 43.26 17.125c0 9.457-19.368 17.124-43.26 17.124z"/></g><ellipse cx="65.49" cy="64.984" rx="7.022" ry="6.85" transform="rotate(180 65.49 64.984)" fill="#fff"/></g><defs><filter id="filter0_d" x="20.009" y="25.845" width="91.521" height="81.299" filterUnits="userSpaceOnUse" color-interpolation-filters="sRGB"><feFlood flood-opacity="0" result="BackgroundImageFix"/><feColorMatrix in="SourceAlpha" values="0 0 0 0 0 0 0 0 0 0 0 0 0 0 0 0 0 0 127 0"/><feOffset dy="2"/><feGaussianBlur stdDeviation=".5"/><feColorMatrix values="0 0 0 0 0.0235294 0 0 0 0 0.0352941 0 0 0 0 0.168627 0 0 0 0.15 0"/><feBlend in2="BackgroundImageFix" result="effect1_dropShadow"/><feBlend in="SourceGraphic" in2="effect1_dropShadow" result="shape"/></filter><filter id="filter1_d" x="20.009" y="25.845" width="91.521" height="81.299" filterUnits="userSpaceOnUse" color-interpolation-filters="sRGB"><feFlood flood-opacity="0" result="BackgroundImageFix"/><feColorMatrix in="SourceAlpha" values="0 0 0 0 0 0 0 0 0 0 0 0 0 0 0 0 0 0 127 0"/><feOffset dy="2"/><feGaussianBlur stdDeviation=".5"/><feColorMatrix values="0 0 0 0 0.0235294 0 0 0 0 0.0352941 0 0 0 0 0.168627 0 0 0 0.15 0"/><feBlend in2="BackgroundImageFix" result="effect1_dropShadow"/><feBlend in="SourceGraphic" in2="effect1_dropShadow" result="shape"/></filter><linearGradient id="paint0_linear" x1="65.705" y1="128.62" x2="65.705" y2="-70.347" gradientUnits="userSpaceOnUse"><stop stop-color="#0983D9"/><stop offset="1" stop-color="#22CDF3"/></linearGradient></defs></svg>