<svg fill="none" xmlns="http://www.w3.org/2000/svg" viewBox="0 0 128 129"><path d="M.47 13.64C.47 6.1 6.48 0 13.9 0h100.18c7.4 0 13.42 6.1 13.42 13.64v101.14c0 7.54-6.01 13.64-13.42 13.64H13.89c-7.4 0-13.42-6.1-13.42-13.63V13.63z" fill="url(#paint0_linear)"/><path d="M51.75 49.83c-6.81-11.23-.8-27.12 12.1-27.75 12.91.63 18.92 16.52 12.1 27.75 2.18 2.99 1.4 7.86-1.97 9.85 1.96 2.61 3.43 3.94 5.91 5 1.16.5 2.46.6 3.66.23a7.77 7.77 0 004.8-4.23c1.04-2.57 1.21-4.5 1.1-7.38a6.14 6.14 0 00-.5-2.27c-1.25-2.82-3.1-5.24-6.17-9.26a9.61 9.61 0 01-2-3.3c-.77-2.5.4-5.87 2.95-6.38.71-.15 1.51-.07 2.5.13 1.27.44 1.96.8 2.48 1.57.43.65-.01 1.44-.67 1.03l-.46-.28a1.75 1.75 0 00-.92-.23c-.45 0-.76.06-1.06.16a2.7 2.7 0 00-1.46 1.37c-.4.93.22 1.95.93 2.67a91.03 91.03 0 017.3 8.34c2.46 3.48 3.36 5.76 3.66 9.48.08.9.05 1.82-.1 2.7a12.48 12.48 0 01-2.78 6.32 34.6 34.6 0 01-6.52 5.77c2.11.88 3.24.88 5.24.6 3.38-.34 4.69-1.19 7.11-2.59 1.8-1.26 2.55-2.22 3.86-3.98a6.98 6.98 0 001.48-3.68c.2-1.99.26-2.94-.1-4.87a3.97 3.97 0 011.38 1.99c.64 1.7.8 2.64.8 4.28-.1 2.46-.34 3.9-1.06 5.89a9.29 9.29 0 01-.81 1.67 14.86 14.86 0 01-4.56 5.07 23.8 23.8 0 01-4.84 2c-1.34.34-2.05.4-3.26.39 3.65 1.46 5.2 2.75 7.3 5.67 1.38 2.3 1.7 3.83 1.69 6.86a26.5 26.5 0 01-.83 3.78 8.29 8.29 0 01-4.4 5.48 6.99 6.99 0 01-3.16.72c-.58 0-1.13-.26-1.54-.67a.08.08 0 010-.1 3.73 3.73 0 012.32-1.07c1.54-.2 2-1.13 2.87-2.36 1.62-2.83 1.27-4.46.98-7.37-.75-1.86-1.46-2.97-3.14-4.02a5.93 5.93 0 00-3.41-.76c-5.15.22-8.5.02-13.9-1.68-.1 3.5-.4 5.35-2.08 8.05-1.44 2.03-2.23 3.45-2.64 5.33a6.12 6.12 0 00.68 4.56 4.84 4.84 0 005.07 2.16 6.35 6.35 0 004.6-3.89 8.8 8.8 0 00.5-3.78c.58 1.08.95 1.81 1.23 2.76.2.67.28 1.37.27 2.07a5.6 5.6 0 01-1.1 3.53c-1.46 1.83-2.4 2.6-4.55 2.89-1.03.19-1.84.28-2.6.29-2.04.02-4.19-.4-5.66-1.79-.3-.28-.6-.6-.93-1-1.44-1.44-2-2.5-2.38-4.97-.07-1.72-.05-3.03.08-4.36.25-2.55 1.3-4.94 1.83-7.44.1-.49.2-1.02.27-1.63a7.28 7.28 0 000-4.18c-.61-1.4-1.3-1.9-2.67-2.68a8.83 8.83 0 00-5.44 0c-1.37.77-2.05 1.28-2.66 2.68a7.28 7.28 0 000 4.18c.07.61.16 1.14.27 1.63.53 2.5 1.57 4.9 1.82 7.44.14 1.33.16 2.64.08 4.36-.38 2.48-.94 3.53-2.37 4.98-.34.39-.64.71-.93 1-1.48 1.39-3.63 1.8-5.66 1.78a14.9 14.9 0 01-2.6-.3c-2.16-.28-3.1-1.05-4.55-2.88a5.6 5.6 0 01-1.1-3.53c-.02-.7.07-1.4.27-2.07.28-.95.64-1.68 1.23-2.76a8.8 8.8 0 00.5 3.78 6.35 6.35 0 004.6 3.88c.39.09.75.12 1.12.12a4.84 4.84 0 003.94-2.27 6.12 6.12 0 00.69-4.56c-.41-1.88-1.2-3.3-2.65-5.33-1.68-2.7-1.97-4.55-2.07-8.05-5.41 1.7-8.76 1.9-13.9 1.68a5.93 5.93 0 00-3.42.76 6.57 6.57 0 00-2.18 2.08 8.6 8.6 0 00-1.17 4.1 8.12 8.12 0 001.2 5.2c.87 1.24 1.32 2.16 2.87 2.37.86.12 1.73.41 2.32 1.06.02.03.02.08 0 .11-.42.41-.97.67-1.55.67-1.17 0-1.97-.2-3.15-.72a8.29 8.29 0 01-3.44-3.19 9.52 9.52 0 01-.96-2.3c-.3-1.02-.54-1.93-.83-3.77-.01-3.03.3-4.56 1.68-6.86 2.1-2.92 3.66-4.21 7.3-5.67-1.2.01-1.91-.05-3.25-.4a23.8 23.8 0 01-4.85-1.99 14.85 14.85 0 01-4.55-5.07 9.28 9.28 0 01-.82-1.67c-.72-2-.96-3.43-1.05-5.9 0-1.63.16-2.57.8-4.27.3-.92.63-1.34 1.38-2-.37 1.94-.31 2.9-.1 4.88.16 1.6.6 2.4 1.48 3.68 1.3 1.76 2.06 2.72 3.85 3.98 2.43 1.4 3.74 2.25 7.12 2.59 2 .28 3.13.28 5.23-.6a34.6 34.6 0 01-6.52-5.77 12.48 12.48 0 01-2.78-6.31c-.14-.9-.17-1.8-.1-2.7.3-3.73 1.2-6 3.67-9.5 2.68-3.39 4.43-5.4 7.3-8.33.7-.72 1.33-1.74.92-2.66a2.7 2.7 0 00-1.46-1.38c-.3-.1-.6-.16-1.06-.16a1.75 1.75 0 00-.92.23c-.14.07-.3.18-.46.28-.65.41-1.1-.38-.66-1.03.52-.78 1.2-1.13 2.47-1.57 1-.2 1.8-.28 2.5-.13 2.56.5 3.72 3.87 2.95 6.38-.3.98-.9 2.01-2 3.3-3.07 4.02-4.91 6.44-6.16 9.26a6.14 6.14 0 00-.5 2.27c-.12 2.88.05 4.8 1.1 7.38a7.77 7.77 0 004.8 4.23c1.2.37 2.5.27 3.65-.22 2.49-1.07 3.96-2.4 5.91-5-3.36-2-4.15-6.87-1.97-9.86z" fill="url(#paint1_linear)"/><path d="M23.18 60.23l.1-1.21c.06-.82.2-1.63.4-2.42-.59.5-.99 1.3-1.28 1.89-.31.93-.7 1.85-.83 2.83l-.06.65c.03 1.39.06 2.17.2 3.58.18 1.36.36 2.1.89 3.38l1.58 2.79a15.26 15.26 0 003.16 3.38c1.82 1.13 2.77 1.43 4.35 2.1 1.67.44 2.65.75 4.34.69l-1.58.7c2.46-.75 5.07-.8 7.6-1.22l1.6-.28c2.17-.2 3.15-.65 5.13-1.49.37-.2.69-.38.98-.56 1.97-1.24 3.35-3.5 3.07-5.8-.2-.84-1.2 0-1.8.61l-.37.38a9.2 9.2 0 01-3.06 2.68c-2.26 1.46-3.8 1.97-6.72 2.69-2.78.3-4.28.08-6.92-.6-3.06-.7-4.4-1.7-6.62-3.68a21.38 21.38 0 01-1.98-2.69 14.57 14.57 0 01-2.18-8.4zM104.97 60.13a44.5 44.5 0 00-.08-1.21c-.08-.82-.22-1.63-.42-2.42.6.5 1 1.3 1.29 1.89.3.93.7 1.85.82 2.83l.07.65a44.88 44.88 0 01-.2 3.58c-.18 1.36-.36 2.1-.89 3.38l-1.58 2.8a15.28 15.28 0 01-3.16 3.37c-1.82 1.13-2.77 1.43-4.35 2.1-1.67.44-2.65.75-4.35.69l1.58.7c-2.46-.75-5.06-.8-7.6-1.22l-1.59-.28c-2.17-.2-3.16-.65-5.13-1.49-.37-.2-.7-.38-.98-.56-1.97-1.24-3.35-3.5-3.08-5.8.21-.84 1.2 0 1.8.61l.38.38a9.2 9.2 0 003.06 2.68c2.26 1.46 3.8 1.97 6.72 2.7 2.78.3 4.28.07 6.92-.6 3.06-.72 4.4-1.7 6.62-3.69a21.4 21.4 0 001.98-2.69 14.57 14.57 0 002.17-8.4z" fill="#fff" fill-opacity=".2"/><path d="M41.84 34.35l-.45-.03c-.74.02-1.43.9-2.1.59 0-.86.68-1.59 1.5-1.87.42-.15.86-.17 1.47-.12 1.69 0 3.54.7 3.78 2.38a5.24 5.24 0 01-1.1 4.18l-4.95 5.77a30.32 30.32 0 00-3.76 8.26c-.54 2.49-.57 3.83.2 6.07.7 1.92 1.22 2.85 2.37 4.28a32.58 32.58 0 003.24 3.26c1.78 1.51 1.56 4.31-.77 4l-1.48-1.1a29.93 29.93 0 01-3.56-3.08c-1.68-1.79-2.67-2.98-3.55-5.27-.4-1-.97-2.7-.8-4.58 0-1.18.1-1.86.3-3.06V54c.24-1.11.39-1.74.9-2.88.7-1.56 1.18-2.3 2.16-3.79.3-.5 2.05-2.74 3.56-4.47l2.37-2.59 1.98-2.09.25-.34c.42-.64.63-1.49.3-2.17a2.72 2.72 0 00-1.86-1.32zM86.36 34.48c.14-.03.3-.04.45-.03.74.01 1.42.9 2.1.58 0-.86-.68-1.59-1.5-1.87a3.46 3.46 0 00-1.47-.12c-1.7 0-3.54.71-3.78 2.38l-.08.8a5.24 5.24 0 001.19 3.39l4.94 5.77a30.33 30.33 0 013.76 8.26c.54 2.48.57 3.83-.2 6.07a12.55 12.55 0 01-2.37 4.27 32.56 32.56 0 01-3.24 3.26c-1.79 1.52-1.56 4.31.77 4l1.48-1.09a29.91 29.91 0 003.56-3.08c1.68-1.8 2.66-2.99 3.55-5.27.39-1 .97-2.7.8-4.58 0-1.19-.1-1.87-.3-3.07v-.02a12.71 12.71 0 00-.9-2.88 23.14 23.14 0 00-2.17-3.78c-.3-.5-2.05-2.75-3.55-4.48l-2.38-2.59-1.97-2.09c-.1-.11-.18-.22-.26-.34-.41-.63-.62-1.48-.29-2.17a2.72 2.72 0 011.86-1.32z" fill="#fff" fill-opacity=".2"/><path d="M51.13 77.79a47.2 47.2 0 01-.1 4.58c-1.7.71-2.69.76-4.64 1.19-3.52.56-5.33.62-8.4.5a8 8 0 00-3.56.4 7.33 7.33 0 00-2.56 1.99l-.34.5a8.65 8.65 0 00-1.13 3.99l-.02.18c-.08 1.35.02 1.94.2 2.99.3.75.46 1.18.89 1.89l.99 1.49c.69.63 1.1.9 1.97 1.1h.22c.68.04 1.37.3 1.86.79l.3.3a4.94 4.94 0 01-4.78-1.48l-.36-.41a8.55 8.55 0 01-3.07-4.58c-.8-2.17-.73-3.44 0-5.77a7.3 7.3 0 012.67-3.98c.66-.58 1.23-1.05 1.87-1.46 2.25-1.44 5-1.85 7.66-2.1l1.22-.09c3.16-.21 6.48-.27 9.11-2.02zM76.46 77.79c-.03 1.43.02 4.5.1 4.58 1.7.71 2.7.76 4.64 1.19 3.53.56 5.33.62 8.4.5a8 8 0 013.56.4 7.33 7.33 0 012.57 1.99l.33.5a8.65 8.65 0 011.14 3.99l.01.18c.1 1.35-.01 1.94-.2 2.99-.3.75-.45 1.18-.88 1.89l-1 1.49c-.68.63-1.1.9-1.97 1.1h-.21c-.68.04-1.38.3-1.86.79l-.3.3c1.7.43 3.59-.18 4.77-1.48l.37-.41a8.55 8.55 0 003.06-4.58c.8-2.17.73-3.44 0-5.77a7.3 7.3 0 00-2.67-3.98A14.74 14.74 0 0094.46 82c-2.26-1.44-5-1.85-7.66-2.1l-1.23-.09c-3.15-.21-6.47-.27-9.1-2.02z" fill="#C4C4C4" fill-opacity=".3"/><path d="M63.7 75.2v2.69c-.4-.1-2.07.2-2.57.4-1.55.8-2 1.31-2.47 2.29a6.88 6.88 0 00-.4 3.68l.9 4.27 1.28 4.78c.38 2.2.4 3.37.2 5.37-.23 1.13-.4 1.7-.79 2.69a7.71 7.71 0 01-3.06 3.58c-1.38 1.16-2.33 1.38-4.15 1.4l-3.56-.3c-1.78-.3-2.4-.7-3.36-1.5a6.55 6.55 0 01-1.98-2.68 5.64 5.64 0 01-.2-3.19c.15-1.42.54-2.3 1.39-3.88a17.88 17.88 0 00-.43 2.88c-.05 1.06.23 2.1.63 3.1.24.6.46 1.07.7 1.47a4.89 4.89 0 004.58 2.17c.98-.13 1.99-.38 2.96-.54 2.27-.37 4.24-2 4.58-4.28.05-.29.08-.59.12-.92.26-2.69.05-4.19-.4-6.86-.63-1.97-.97-3.17-1.58-5.37-.73-2.05-.8-3.29-.59-5.58a6.07 6.07 0 011.39-3.08l.1-.12a7.51 7.51 0 013.12-2.05c1.3-.4 2.18-.45 3.6-.42z" fill="#C4C4C4" fill-opacity=".2"/><path d="M63.7 75.2v2.6c.4-.1 2.18.3 2.67.5 1.56.8 2 1.31 2.47 2.28.58 1.55.52 2.32.4 3.68l-.9 4.28-1.28 4.78c-.38 2.2-.39 3.37-.2 5.37.23 1.12.41 1.7.8 2.69a7.71 7.71 0 003.06 3.58c1.38 1.16 2.32 1.38 4.15 1.4l3.56-.3c1.78-.3 2.4-.7 3.36-1.5a6.54 6.54 0 001.97-2.69c.44-1.23.4-2.28.2-3.18-.14-1.43-.54-2.3-1.38-3.88.23 1.14.38 1.95.42 2.87a7.53 7.53 0 01-.62 3.1 9.16 9.16 0 01-.7 1.47 4.89 4.89 0 01-4.59 2.17c-.97-.12-1.98-.37-2.95-.53-2.27-.38-4.24-2.01-4.59-4.29l-.11-.91c-.26-2.69-.06-4.2.4-6.86.62-1.98.97-3.17 1.57-5.38.74-2.04.8-3.28.6-5.57a6.07 6.07 0 00-1.39-3.08l-.1-.12a7.52 7.52 0 00-3.13-2.06c-1.32-.4-2.27-.45-3.69-.42z" fill="#C4C4C4" fill-opacity=".2"/><path d="M61.04 58.09v8.26m3.36-9.26v9.95m2.96-9.15v8.76" stroke="#000" stroke-opacity=".3" stroke-linecap="round"/><ellipse cx="55.5" cy="54.41" rx="2.57" ry="3.48" fill="#15172E"/><ellipse cx="55.01" cy="52.82" rx=".89" ry=".9" fill="#fff" fill-opacity=".9"/><ellipse cx="72.7" cy="54.41" rx="2.57" ry="3.48" fill="#15172E"/><ellipse cx="72.2" cy="52.82" rx=".89" ry=".9" fill="#fff" fill-opacity=".9"/><circle cx="56.98" cy="31.33" fill="#15172E" fill-opacity=".3" r="1.09"/><circle cx="61.63" cy="28.24" fill="#15172E" fill-opacity=".3" r="1.19"/><ellipse cx="65.09" cy="33.71" rx="2.27" ry="2.29" fill="#15172E" fill-opacity=".3"/><ellipse cx="59.16" cy="35.9" rx="1.28" ry="1.29" fill="#15172E" fill-opacity=".3"/><ellipse cx="55.8" cy="39.29" rx=".69" ry=".7" fill="#15172E" fill-opacity=".3"/><ellipse cx="61.93" cy="41.47" rx="1.88" ry="1.89" fill="#15172E" fill-opacity=".3"/><defs><linearGradient id="paint0_linear" x1="74.4" y1="247.82" x2="74.91" y2="-51.67" gradientUnits="userSpaceOnUse"><stop stop-color="#1C2230"/><stop offset="1" stop-color="#565C6D"/></linearGradient><linearGradient id="paint1_linear" x1="63.85" y1="22.07" x2="63.85" y2="106.34" gradientUnits="userSpaceOnUse"><stop stop-color="#FB5857"/><stop offset="1" stop-color="#F45C5C"/></linearGradient></defs></svg>