<svg fill="none" xmlns="http://www.w3.org/2000/svg" viewBox="0 0 128 129"><rect x=".43" width="126.16" height="128.42" rx="13" fill="url(#paint0_linear)"/><g filter="url(#filter0_d)"><path d="M79.7 55.23H69.32a.82.82 0 01-.82-.82v-2.6a5.7 5.7 0 00-.63-3.04c-.13-.22-.29-.43-.47-.64a3.8 3.8 0 00-3.1-1.4c-.68.03-1.45.3-2.04.66-.65.41-1.1.83-1.46 1.4-.4.63-.5 1.4-.5 2.14 0 .63.12 1.26.42 1.83 1.49 2.87 3.56 4.79 8.38 7.25 2.04 1.04 4.09 2.07 5.94 3.41 2.68 1.95 4.53 3.8 5.98 6.65 1.14 2.26 1.43 4.83 1.43 7.36 0 2.45-.28 4.93-1.3 7.16-1.94 4.18-4.58 6.25-9.53 7.51-2.32.6-4.73.72-7.13.72-3.06 0-6.15-.2-9.06-1.17-4.2-1.41-6.54-3.36-8.14-6.5-1.56-3.06-1.76-6.6-1.76-10.03 0-1.3 1.04-2.35 2.34-2.35h9.37c1.24 0 2.24 1 2.24 2.24 0 2.12-.12 4.65 1.6 5.88.35.25.76.45 1.27.66 1.38.54 2.18.61 3.7 0 .93-.52 1.41-.96 1.74-1.67.25-.54.3-1.14.3-1.73a5 5 0 00-.49-2.29c-1.37-2.69-3.62-4.44-8.12-7.26-5.44-2.88-8.55-5.13-10.97-8.87a15.2 15.2 0 01-2.53-8.68 18 18 0 011.8-7.25c2.58-5.36 6.03-7.34 13.34-8.2 4.1 0 8.3.07 12.06 1.67 3.04 1.3 5.08 3.2 6.71 6.45 1.41 2.81 1.84 6 2.02 9.15a2.23 2.23 0 01-2.23 2.36z" fill="#fff"/></g><g filter="url(#filter1_d)"><path d="M91.01 19.87V0h17.18v19.87l-8.59-6.36-8.59 6.36z" fill="#fff"/></g><defs><filter id="filter0_d" x="44.54" y="35.6" width="38.93" height="60.22" filterUnits="userSpaceOnUse" color-interpolation-filters="sRGB"><feFlood flood-opacity="0" result="BackgroundImageFix"/><feColorMatrix in="SourceAlpha" values="0 0 0 0 0 0 0 0 0 0 0 0 0 0 0 0 0 0 127 0"/><feOffset dy="2"/><feGaussianBlur stdDeviation=".5"/><feColorMatrix values="0 0 0 0 0.0235294 0 0 0 0 0.0352941 0 0 0 0 0.168627 0 0 0 0.15 0"/><feBlend in2="BackgroundImageFix" result="effect1_dropShadow"/><feBlend in="SourceGraphic" in2="effect1_dropShadow" result="shape"/></filter><filter id="filter1_d" x="90.01" y="0" width="19.18" height="22.87" filterUnits="userSpaceOnUse" color-interpolation-filters="sRGB"><feFlood flood-opacity="0" result="BackgroundImageFix"/><feColorMatrix in="SourceAlpha" values="0 0 0 0 0 0 0 0 0 0 0 0 0 0 0 0 0 0 127 0"/><feOffset dy="2"/><feGaussianBlur stdDeviation=".5"/><feColorMatrix values="0 0 0 0 0.0235294 0 0 0 0 0.0352941 0 0 0 0 0.168627 0 0 0 0.15 0"/><feBlend in2="BackgroundImageFix" result="effect1_dropShadow"/><feBlend in="SourceGraphic" in2="effect1_dropShadow" result="shape"/></filter><linearGradient id="paint0_linear" x1="60.06" y1="135.45" x2="63.63" y2="-86.28" gradientUnits="userSpaceOnUse"><stop stop-color="#FC5067"/><stop offset="1" stop-color="#F897A8"/></linearGradient></defs></svg>