<svg fill="none" xmlns="http://www.w3.org/2000/svg" viewBox="0 0 128 129"><rect x=".43" width="127.19" height="128.46" rx="13" fill="url(#paint0_linear)"/><g filter="url(#filter0_d)" fill="#fff"><path d="M81.14 72.67v6.64H70.3v34.37h-8.16V79.3H51.3v-6.64h29.84zM101.14 114.09c-2.84 0-5.4-.49-7.7-1.47a12.62 12.62 0 01-5.36-4.23 11.2 11.2 0 01-2.04-6.52h8.75c.11 1.68.7 3.02 1.74 4 1.1.97 2.57 1.46 4.43 1.46 1.9 0 3.4-.45 4.5-1.35a4.6 4.6 0 001.62-3.64 4.2 4.2 0 00-1.1-3 7.41 7.41 0 00-2.8-1.82A38.1 38.1 0 0098.63 96a54.12 54.12 0 01-6.47-2.29 12 12 0 01-4.25-3.46c-1.17-1.57-1.75-3.65-1.75-6.23 0-2.43.6-4.55 1.8-6.35 1.21-1.8 2.9-3.17 5.08-4.11a18 18 0 017.46-1.47c4.2 0 7.6 1.04 10.2 3.11 2.64 2.04 4.1 4.9 4.37 8.58h-8.98a4.59 4.59 0 00-1.8-3.46 6.45 6.45 0 00-4.38-1.41c-1.59 0-2.87.4-3.84 1.23-.93.82-1.4 2.02-1.4 3.58 0 1.1.35 2.02 1.05 2.77a9.4 9.4 0 002.68 1.76c1.09.43 2.6.94 4.54 1.53 2.65.78 4.8 1.56 6.47 2.35 1.67.78 3.11 1.95 4.32 3.52 1.2 1.57 1.8 3.62 1.8 6.17 0 2.2-.56 4.23-1.69 6.11a12.16 12.16 0 01-4.95 4.52 17.03 17.03 0 01-7.75 1.65z"/></g><defs><linearGradient id="paint0_linear" x1="64.02" y1="128.46" x2="64.02" y2="-70.51" gradientUnits="userSpaceOnUse"><stop stop-color="#057AC8"/><stop offset="1" stop-color="#8BEAFF"/></linearGradient><filter id="filter0_d" x="50.3" y="72.08" width="66.23" height="45.01" filterUnits="userSpaceOnUse" color-interpolation-filters="sRGB"><feFlood flood-opacity="0" result="BackgroundImageFix"/><feColorMatrix in="SourceAlpha" values="0 0 0 0 0 0 0 0 0 0 0 0 0 0 0 0 0 0 127 0"/><feOffset dy="2"/><feGaussianBlur stdDeviation=".5"/><feColorMatrix values="0 0 0 0 0.0235294 0 0 0 0 0.0352941 0 0 0 0 0.168627 0 0 0 0.15 0"/><feBlend in2="BackgroundImageFix" result="effect1_dropShadow"/><feBlend in="SourceGraphic" in2="effect1_dropShadow" result="shape"/></filter></defs></svg>