<svg fill="none" xmlns="http://www.w3.org/2000/svg" viewBox="0 0 458 512"><g clip-path="url(#clip0)"><path d="M19 116.6L213.83 9.84a36.64 36.64 0 0135.78.32l189.57 108.29a36.57 36.57 0 0118.44 31.75v215.22c0 13.3-7.22 25.55-18.86 31.99L249.32 502.3a36.64 36.64 0 01-35.14.2L19.22 397.34A36.56 36.56 0 010 365.16v-216.5a36.57 36.57 0 0119-32.06z" fill="url(#paint0_linear)"/><path d="M376.69 339.45C357.67 373.06 275.48 362.12 193.1 315 110.73 267.88 59.37 202.42 78.38 168.8c19.02-33.61 101.21-22.66 183.59 24.46 82.37 47.12 133.73 112.57 114.72 146.19z" stroke="#fff" stroke-width="8.64"/><path d="M376.69 168.49c-19.02-33.62-101.21-22.67-183.59 24.45-82.37 47.12-133.73 112.57-114.72 146.19 19.02 33.62 101.21 22.67 183.59-24.45 82.37-47.12 133.73-112.57 114.72-146.19z" stroke="#fff" stroke-width="8.64"/><path d="M227.5 81.87c-38.47 0-69.64 77.26-69.64 172.56s31.17 172.55 69.64 172.55c38.46 0 69.63-77.25 69.63-172.55 0-95.3-31.17-172.56-69.63-172.56z" stroke="#fff" stroke-width="8.64"/><path d="M255.92 256.12a27.93 27.93 0 00-27.86-28.02 27.93 27.93 0 00-27.85 28.02 27.93 27.93 0 0027.85 28 27.93 27.93 0 0027.86-28z" fill="#fff"/></g><defs><linearGradient id="paint0_linear" x1="219.66" y1="694.86" x2="237.92" y2="178.28" gradientUnits="userSpaceOnUse"><stop stop-color="#F231A5"/><stop offset="1" stop-color="#FF66C2"/></linearGradient><clipPath id="clip0"><path fill="#fff" d="M0 0h457.62v512H0z"/></clipPath></defs></svg>